<?xml version="1.0" encoding="UTF-8"?>
<svg width="20px" height="20px" viewBox="0 0 20 20" version="1.1" xmlns="http://www.w3.org/2000/svg" xmlns:xlink="http://www.w3.org/1999/xlink">
    <title>icon-More</title>
    <g id="页面-1" stroke="none" stroke-width="1" fill="none" fill-rule="evenodd">
        <g id="Basic" transform="translate(-309.000000, -182.000000)" fill="#000000" fill-rule="nonzero">
            <g id="icon-More" transform="translate(309.000000, 182.000000)">
                <rect id="矩形" opacity="0" x="0" y="0" width="20" height="20"></rect>
                <path d="M17.3862305,9.97023437 C17.3157617,14.0608789 14.0694727,17.3070898 9.97884766,17.3775391 C5.88798828,17.4480078 2.64025391,13.9548047 2.57162109,9.97023437 C2.50117187,5.879375 5.99427734,2.6315625 9.97884766,2.56292969 C14.0697852,2.49246094 17.3175977,5.98558594 17.3862305,9.97023437 C17.3995703,10.7439844 18.6007617,10.7452539 18.587513,9.97023437 C18.5106836,5.51498047 15.2169922,1.93794922 10.8148437,1.40484375 C6.39857422,0.870058594 2.32681641,4.16271484 1.51035156,8.43082031 C0.677167969,12.7858789 3.47617187,17.0100586 7.64714844,18.2591797 C11.9234766,19.5398437 16.3583008,17.0650781 18.0120312,13.0623047 C18.414375,12.088418 18.569375,11.0175781 18.587513,9.97021484 C18.6007422,9.19521484 17.3995508,9.19650391 17.3862305,9.97023437 Z M9.90169922,13.19 L12.696875,10.3949219 C12.9282617,10.1635352 12.9282617,9.77693359 12.696875,9.54554688 L9.90171875,6.75042969 C9.35353516,6.20224609 8.50417969,7.05160156 9.05236328,7.59978516 L11.8474609,10.3949219 L11.8474609,9.54556641 L9.05234375,12.340625 C8.50416016,12.8888281 9.35351562,13.7381836 9.90169922,13.19 L9.90169922,13.19 Z" id="形状" opacity="0.448295957"></path>
            </g>
        </g>
    </g>
</svg>