<?xml version="1.0" encoding="UTF-8"?>
<svg width="46px" height="46px" viewBox="0 0 46 46" version="1.1" xmlns="http://www.w3.org/2000/svg" xmlns:xlink="http://www.w3.org/1999/xlink">
    <title>icon-Composition</title>
    <g id="页面-1" stroke="none" stroke-width="1" fill="none" fill-rule="evenodd">
        <g id="组件" transform="translate(-293.000000, -399.000000)" fill-rule="nonzero">
            <g id="布局组件" transform="translate(16.000000, 384.000000)">
                <g id="icon-Composition" transform="translate(277.000000, 15.000000)">
                    <rect id="矩形备份-46" opacity="0.704923357" x="0" y="0" width="46" height="46"></rect>
                    <g id="选项" transform="translate(4.789086, 4.789086)">
                        <path d="M30.5180398,36.4218273 L5.90378747,36.4218273 C2.64762161,36.4218273 0,33.7742057 0,30.5180398 L0,5.90378747 C0,2.64762161 2.64762161,0 5.90378747,0 L30.5180398,0 C33.7742057,0 36.4218273,2.64762161 36.4218273,5.90378747 L36.4218273,30.5180398 C36.4218273,33.7742057 33.7742057,36.4218273 30.5180398,36.4218273 Z M5.90378747,2.72482499 C4.15081673,2.72482499 2.72482499,4.15081673 2.72482499,5.90378747 L2.72482499,30.5180398 C2.72482499,32.2710106 4.15081673,33.6970023 5.90378747,33.6970023 L30.5180398,33.6970023 C32.2710106,33.6970023 33.6970023,32.2710106 33.6970023,30.5180398 L33.6970023,5.90378747 C33.6970023,4.15081673 32.2710106,2.72482499 30.5180398,2.72482499 L5.90378747,2.72482499 Z" id="形状" fill="#FFFFFF" opacity="0.7"></path>
                        <path d="M10.3838539,15.3975319 C10.027356,15.3975319 9.68221145,15.2567492 9.42789445,15.0069736 L6.66673847,12.2889607 C6.13085622,11.7621612 6.12404416,10.8992999 6.65084365,10.361147 C7.17925212,9.8254614 8.04148786,9.81835227 8.57865733,10.3452522 L10.3475229,12.0868695 L14.5664602,7.62042721 C14.8143999,7.35754678 15.1567159,7.20407538 15.51793,7.19385234 C15.8791442,7.1836293 16.2295924,7.31749417 16.4920032,7.56593071 C16.7548837,7.81387035 16.9083551,8.15618635 16.9185781,8.51740051 C16.9288011,8.87861468 16.7949363,9.22906283 16.5464997,9.4914737 L11.3738736,14.9706426 C11.1223425,15.2364353 10.7747004,15.3902158 10.4088314,15.3975319 L10.3838539,15.3975319 L10.3838539,15.3975319 Z" id="路径" fill="#FF5E5E"></path>
                        <path d="M28.8854155,12.8339257 L21.2536349,12.8339257 C20.5020373,12.8339257 19.8912224,12.2231108 19.8912224,11.4715132 C19.8912224,10.7199156 20.5020373,10.1091007 21.2536349,10.1091007 L28.8854155,10.1091007 C29.6370131,10.1091007 30.247828,10.7199156 30.247828,11.4715132 C30.247828,12.2231108 29.6370131,12.8339257 28.8854155,12.8339257 L28.8854155,12.8339257 Z" id="路径" fill="#FFFFFF" opacity="0.7"></path>
                        <path d="M28.8854155,25.1319691 L21.2536349,25.1319691 C20.5020373,25.1319691 19.8912224,24.5211542 19.8912224,23.7695566 C19.8912224,23.0179591 20.5020373,22.4071441 21.2536349,22.4071441 L28.8854155,22.4071441 C29.6370131,22.4071441 30.247828,23.0179591 30.247828,23.7695566 C30.247828,24.5211542 29.6370131,25.1319691 28.8854155,25.1319691 Z" id="路径" fill="#FF5E5E"></path>
                        <path d="M11.5918596,29.0443637 C8.68310896,29.0443637 6.31705259,26.6783073 6.31705259,23.7695566 C6.31705259,20.860806 8.68310896,18.4947496 11.5918596,18.4947496 C14.5006103,18.4947496 16.8666667,20.860806 16.8666667,23.7695566 C16.8666667,26.6783073 14.5006103,29.0443637 11.5918596,29.0443637 L11.5918596,29.0443637 Z M11.5918596,21.2173039 C10.1863041,21.2173039 9.04187758,22.3617304 9.04187758,23.7672859 C9.04187758,25.1728415 10.1863041,26.317268 11.5918596,26.317268 C12.9974152,26.317268 14.1418417,25.1728415 14.1418417,23.7672859 C14.1418417,22.3617304 12.9974152,21.2173039 11.5918596,21.2173039 Z" id="形状" fill="#FFFFFF" opacity="0.7"></path>
                    </g>
                </g>
            </g>
        </g>
    </g>
</svg>