<?xml version="1.0" encoding="UTF-8"?>
<svg width="46px" height="46px" viewBox="0 0 46 46" version="1.1" xmlns="http://www.w3.org/2000/svg" xmlns:xlink="http://www.w3.org/1999/xlink">
    <title>icon-view</title>
    <g id="页面-1" stroke="none" stroke-width="1" fill="none" fill-rule="evenodd">
        <g id="组件" transform="translate(-293.000000, -491.000000)" fill-rule="nonzero">
            <g id="视图组件" transform="translate(16.000000, 476.000000)">
                <g id="icon-view" transform="translate(277.000000, 15.000000)">
                    <rect id="矩形备份-172" opacity="0.704923357" x="0" y="0" width="46" height="46"></rect>
                    <g id="显示" transform="translate(1.931584, 6.560223)">
                        <path d="M21.074913,32.8795548 C15.327803,32.8795548 10.3549974,30.8699964 6.29273748,26.9099174 C2.99569925,23.6946239 1.16325444,19.9706965 0.363972447,18.0360707 C-0.142390863,16.8098995 -0.119683988,15.4134267 0.427551697,14.2099623 C1.26997676,12.3525399 3.17962493,8.78074852 6.48120454,5.70169628 C10.5389231,1.91873093 15.4095477,0 20.9568373,0 C26.4950441,0 31.3861049,1.91191887 35.4960493,5.6812601 C38.8453133,8.75350027 40.809458,12.323021 41.681402,14.1781727 C42.2558859,15.3975319 42.2876756,16.8144409 41.7722295,18.063319 C40.9706768,19.9979447 39.1336906,23.7218722 35.8343817,26.9326243 C31.7789339,30.8768085 26.8129403,32.8795548 21.074913,32.8795548 Z M2.88443556,16.9938252 C4.51933055,20.9493628 9.56479815,30.1524592 21.074913,30.1524592 C32.5714038,30.1524592 37.6191421,20.9652576 39.2563078,17.016532 C39.4811058,16.4761084 39.4674817,15.8630228 39.2177061,15.3362233 C37.4329457,11.5441752 32.0786646,2.7225543 20.959108,2.7225543 C9.83955134,2.7225543 4.63286493,11.5419045 2.90941312,15.3339526 C2.6732204,15.8602751 2.66418626,16.4606342 2.88443556,16.9938252 Z" id="形状" fill="#FFFFFF" opacity="0.7"></path>
                        <path d="M21.074913,24.4984473 C16.6289069,24.4984473 13.0139724,20.8835128 13.0139724,16.4375067 C13.0139724,11.9937713 16.6289069,8.37656615 21.074913,8.37656615 C25.5209191,8.37656615 29.1358536,11.9937713 29.1358536,16.4375067 C29.1358536,20.8835128 25.5186484,24.4984473 21.074913,24.4984473 Z M21.074913,11.1013911 C18.132102,11.1013911 15.7387974,13.4946957 15.7387974,16.4375067 C15.7387974,19.3803177 18.132102,21.7736223 21.074913,21.7736223 C24.017724,21.7736223 26.4110286,19.3803177 26.4110286,16.4375067 C26.4110286,13.4946957 24.017724,11.1013911 21.074913,11.1013911 L21.074913,11.1013911 Z" id="形状" fill="#FF5E5E"></path>
                    </g>
                </g>
            </g>
        </g>
    </g>
</svg>