<?xml version="1.0" encoding="UTF-8"?>
<svg width="46px" height="46px" viewBox="0 0 46 46" version="1.1" xmlns="http://www.w3.org/2000/svg" xmlns:xlink="http://www.w3.org/1999/xlink">
    <title>icon-form</title>
    <g id="页面-1" stroke="none" stroke-width="1" fill="none" fill-rule="evenodd">
        <g id="组件" transform="translate(-293.000000, -767.000000)" fill-rule="nonzero">
            <g id="表单组件" transform="translate(16.000000, 752.000000)">
                <g id="icon-form" transform="translate(277.000000, 15.000000)">
                    <rect id="矩形备份-141" opacity="0.704923357" x="0" y="0" width="46" height="46"></rect>
                    <g id="分类" transform="translate(3.517798, 3.343791)">
                        <path d="M19.7212225,23.6605654 C19.1603627,23.6605654 18.5972322,23.5107 18.097681,23.21324 L3.09524874,14.2735433 C2.10977037,13.6854353 1.53074506,12.6500018 1.54632092,11.5010339 C1.56253469,10.3520661 2.17334962,9.33479806 3.1747228,8.77620893 L18.2112154,0.404184162 C19.1785282,-0.13623946 20.3343082,-0.133968773 21.301621,0.406454849 L36.276805,8.77620893 C37.2781782,9.33479806 37.8844518,10.3543367 37.9006655,11.5010339 C37.9162414,12.6477311 37.3372161,13.6831646 36.3517377,14.2712727 L21.3424934,23.21324 C20.8523671,23.5059875 20.2921208,23.6605654 19.7212225,23.6605654 Z M19.7530122,2.72936815 C19.6780795,2.72936815 19.6031468,2.74753365 19.5350262,2.78613534 L4.5008043,11.1581601 C4.30325449,11.2671531 4.27134073,11.4465374 4.27134073,11.5419063 C4.26919417,11.6372752 4.29644242,11.8166595 4.48945086,11.9324645 L19.4918831,20.8721612 C19.6326657,20.9561766 19.8075087,20.9561766 19.950562,20.8721612 L34.9598063,11.9301939 C35.1528147,11.8143888 35.180063,11.6350045 35.1779164,11.5396356 C35.1755216,11.441996 35.1460026,11.2648824 34.9484528,11.1558894 L19.9732688,2.78613534 C19.9051482,2.74753365 19.8302155,2.72936815 19.7530122,2.72936815 Z" id="形状" fill="#FFFFFF" opacity="0.7"></path>
                        <path d="M19.703057,31.3877149 C19.0173094,31.3877149 18.3315618,31.2174134 17.7162055,30.8768103 L0.701944129,21.4421037 C0.0442434913,21.0766267 -0.193461669,20.2477061 0.170603256,19.5892228 C0.345738808,19.2729396 0.639405427,19.0392362 0.986933307,18.9395774 C1.33446119,18.8399187 1.70735008,18.8824776 2.02348425,19.0578819 L19.0354749,28.4925884 C19.4510107,28.7219278 19.9664568,28.7196571 20.3797219,28.4857763 L36.9262216,19.0669646 C37.2402682,18.8883466 37.6124172,18.8418278 37.9607685,18.9376457 C38.3091197,19.0334635 38.6051259,19.2637659 38.783644,19.5778693 C39.1560368,20.2318273 38.9266973,21.0628989 38.2727393,21.4352917 L21.7262396,30.8563741 C21.1063419,31.2106013 20.4046995,31.3877149 19.703057,31.3877149 Z" id="路径" fill="#FF5E5E"></path>
                        <path d="M19.703057,39.3124188 C19.0173094,39.3124188 18.3315618,39.1421127 17.7162055,38.8015096 L0.701944129,29.3668031 C0.0442434913,29.001326 -0.193461669,28.1724055 0.170603256,27.5139221 C0.345738808,27.1976389 0.639405427,26.9639355 0.986933307,26.8642768 C1.33446119,26.764618 1.70735008,26.8071769 2.02348425,26.9825812 L19.0377456,36.4195584 C19.4532814,36.6488979 19.9687275,36.6466272 20.3819926,36.4127464 L36.9284923,26.9939347 C37.2425389,26.8153166 37.6146879,26.7687978 37.9630391,26.8646157 C38.3113904,26.9604336 38.6073966,27.1907359 38.7859147,27.5048393 C39.1583074,28.1587973 38.928968,28.989869 38.27501,29.3622617 L21.7285103,38.7833441 C21.1101997,39.1312157 20.4125086,39.3134601 19.703057,39.3124188 Z" id="路径" fill="#FFFFFF" opacity="0.7"></path>
                    </g>
                </g>
            </g>
        </g>
    </g>
</svg>