<?xml version="1.0" encoding="UTF-8"?>
<svg width="46px" height="46px" viewBox="0 0 46 46" version="1.1" xmlns="http://www.w3.org/2000/svg" xmlns:xlink="http://www.w3.org/1999/xlink">
    <title>icon-basic</title>
    <g id="页面-1" stroke="none" stroke-width="1" fill="none" fill-rule="evenodd">
        <g id="组件" transform="translate(-293.000000, -308.000000)" fill-rule="nonzero">
            <g id="基础组件" transform="translate(16.000000, 292.000000)">
                <g id="icon-basic" transform="translate(277.000000, 16.000000)">
                    <rect id="矩形备份-26" opacity="0.704923357" x="0" y="0" width="46" height="46"></rect>
                    <g id="链接" transform="translate(3.408508, 3.409076)">
                        <path d="M27.1585577,39.181848 C24.0772348,39.181848 20.9959119,38.0101732 18.6502917,35.664553 L14.4540612,31.4683226 C13.922805,30.9364049 13.922805,30.0746973 14.4540612,29.5427796 C14.9859789,29.0115234 15.8476865,29.0115234 16.3796042,29.5427796 L20.5758347,33.7390101 C22.3333468,35.4965222 24.6698842,36.463835 27.156287,36.463835 C29.6426898,36.463835 31.9792272,35.4965222 33.7367394,33.7390101 C37.365298,30.1104514 37.365298,24.206664 33.7367394,20.5781054 L29.7584949,16.5998609 C29.2272387,16.0679432 29.2272387,15.2062356 29.7584949,14.6743179 C30.2904126,14.1430617 31.1521202,14.1430617 31.6840379,14.6743179 L35.664553,18.648021 C40.3557934,23.3392614 40.3557934,30.971042 35.664553,35.6622824 C33.3189329,38.0079025 30.2398806,39.181848 27.1585577,39.181848 L27.1585577,39.181848 Z M8.24373093,24.6925911 C7.89404505,24.6925911 7.54662987,24.5586205 7.28095943,24.2929501 L3.51843026,20.5326916 C-1.17281009,15.8414513 -1.17281009,8.20967062 3.51843026,3.51843026 C8.20967062,-1.17281009 15.8414513,-1.17281009 20.5326916,3.51843026 L24.249807,7.23554568 C24.7810632,7.76746339 24.7810632,8.62917096 24.249807,9.16108867 C23.7178893,9.69234485 22.8561818,9.69234485 22.324264,9.16108867 L18.6071486,5.44397325 C14.97859,1.81541465 9.07480255,1.81541465 5.44624394,5.44397325 C1.81768533,9.07253186 1.81768533,14.9763193 5.44624394,18.6048779 L9.20650242,22.3651364 C9.7377586,22.8970541 9.7377586,23.7587617 9.20650242,24.2906794 C8.95219121,24.5479388 8.60547195,24.6925911 8.24373093,24.6925911 L8.24373093,24.6925911 Z" id="形状" fill="#FFFFFF" opacity="0.703654698"></path>
                        <path d="M25.7234832,26.8656458 C25.3715267,26.8656458 25.0195701,26.7293978 24.7538997,26.459186 L15.0126503,16.5907781 C14.7587552,16.333816 14.617509,15.9864088 14.6200308,15.6251807 C14.6226207,15.2639526 14.7687687,14.9185789 15.0262745,14.6652351 C15.2832366,14.4113401 15.6306438,14.2700938 15.9918719,14.2726156 C16.3531,14.2752055 16.6984737,14.4213535 16.9518174,14.6788593 L26.6907961,24.5495378 C26.9446912,24.8065 27.0859374,25.1539071 27.0834156,25.5151352 C27.0808257,25.8763633 26.9346777,26.221737 26.677172,26.4750808 C26.4234753,26.7263268 26.080534,26.8667694 25.7234832,26.8656458 L25.7234832,26.8656458 Z" id="路径" fill="#FF5E5E"></path>
                    </g>
                </g>
            </g>
        </g>
    </g>
</svg>