<?xml version="1.0" encoding="UTF-8"?>
<svg width="46px" height="46px" viewBox="0 0 46 46" version="1.1" xmlns="http://www.w3.org/2000/svg" xmlns:xlink="http://www.w3.org/1999/xlink">
    <title>icon-Interactive</title>
    <g id="页面-1" stroke="none" stroke-width="1" fill="none" fill-rule="evenodd">
        <g id="组件" transform="translate(-293.000000, -675.000000)" fill-rule="nonzero">
            <g id="交互组件" transform="translate(16.000000, 660.000000)">
                <g id="icon-Interactive" transform="translate(277.000000, 15.000000)">
                    <rect id="矩形备份-83" opacity="0.704923357" x="0" y="0" width="46" height="46"></rect>
                    <g id="循环" transform="translate(3.549291, 3.373313)">
                        <path d="M37.5390056,18.4425238 C36.787408,18.4425238 36.1765931,19.0533387 36.1765931,19.8049363 C36.1765931,29.0284689 28.6742416,36.5308203 19.450709,36.5308203 C10.2271764,36.5308203 2.72482499,29.0284689 2.72482499,19.8049363 C2.72482499,10.5814037 10.2271764,3.07905223 19.450709,3.07905223 C24.2418596,3.07905223 28.751445,5.12494166 31.9031592,8.63996589 L26.7555107,8.63996589 C26.0039131,8.63996589 25.3930982,9.25078083 25.3930982,10.0023784 C25.3930982,10.7539759 26.0039131,11.3647909 26.7555107,11.3647909 L35.1048286,11.3647909 C35.8564261,11.3647909 36.4672411,10.7539759 36.4672411,10.0023784 L36.4672411,1.36241249 C36.4672411,0.610814934 35.8564261,0 35.1048286,0 C34.353231,0 33.7424161,0.610814934 33.7424161,1.36241249 L33.7424161,6.60770059 C30.0613862,2.61780879 24.8792642,0.349498339 19.450709,0.351956561 C8.72625202,0.351956561 0,9.07820858 0,19.8026656 C0,30.5271226 8.72625202,39.2533746 19.450709,39.2533746 C30.175166,39.2533746 38.9014181,30.5271226 38.9014181,19.8026656 C38.9014181,19.051068 38.2906031,18.4425238 37.5390056,18.4425238 Z" id="路径" fill="#FFFFFF" opacity="0.7"></path>
                        <path d="M19.450709,27.2641447 C15.3362233,27.2641447 11.9892299,23.9171513 11.9892299,19.8026656 C11.9892299,15.6881799 15.3362233,12.3411865 19.450709,12.3411865 C23.5651948,12.3411865 26.9121881,15.6881799 26.9121881,19.8026656 C26.9121881,23.9171513 23.5651948,27.2641447 19.450709,27.2641447 Z M19.450709,15.0682822 C16.8394184,15.0682822 14.7140549,17.1936457 14.7140549,19.8049363 C14.7140549,22.4162269 16.8394184,24.5415904 19.450709,24.5415904 C22.0619996,24.5415904 24.1873631,22.4162269 24.1873631,19.8049363 C24.1873631,17.1936457 22.0619996,15.0682822 19.450709,15.0682822 Z" id="形状" fill="#FF5E5E"></path>
                    </g>
                </g>
            </g>
        </g>
    </g>
</svg>