<?xml version="1.0" encoding="UTF-8"?>
<svg width="46px" height="46px" viewBox="0 0 46 46" version="1.1" xmlns="http://www.w3.org/2000/svg" xmlns:xlink="http://www.w3.org/1999/xlink">
    <title>icon-Navigation</title>
    <g id="页面-1" stroke="none" stroke-width="1" fill="none" fill-rule="evenodd">
        <g id="组件" transform="translate(-293.000000, -583.000000)" fill-rule="nonzero">
            <g id="导航组件" transform="translate(16.000000, 568.000000)">
                <g id="icon-Navigation" transform="translate(277.000000, 15.000000)">
                    <rect id="矩形备份-8" opacity="0.704923357" x="0" y="0" width="46" height="46"></rect>
                    <g id="导航" transform="translate(2.597873, 2.596738)">
                        <path d="M20.4021271,40.8065249 C9.15314127,40.8065249 0,31.6533836 0,20.4043978 C0,9.15541195 9.15314127,0 20.4021271,0 C31.6511129,0 40.8042542,9.15314127 40.8042542,20.4021271 C40.8042542,31.6511129 31.6511129,40.8065249 20.4021271,40.8065249 Z M20.4021271,2.72482499 C10.6540657,2.72482499 2.72482499,10.6540657 2.72482499,20.4021271 C2.72482499,30.1501885 10.6540657,38.0794292 20.4021271,38.0794292 C30.1501885,38.0794292 38.0794292,30.1501885 38.0794292,20.4021271 C38.0794292,10.6563364 30.1501885,2.72482499 20.4021271,2.72482499 Z" id="形状" fill="#FFFFFF" opacity="0.703654698"></path>
                        <path d="M22.4253096,31.5285209 L22.4139562,31.5285209 C21.478433,31.5239544 20.6768803,30.9154102 20.4180219,30.0162179 L18.1246275,22.0120445 L10.5836744,20.0047568 C9.67994076,19.7640639 9.05777239,18.9761353 9.03506552,18.0406121 C9.01235864,17.1050889 9.59138395,16.2876414 10.4814934,15.999264 L26.7691348,10.7426225 C27.5067964,10.5031282 28.316437,10.6939408 28.8695207,11.2376324 C29.425025,11.778775 29.6333395,12.5840244 29.4099444,13.3266649 L24.4257853,30.0366541 C24.1663065,30.9244377 23.3502251,31.5330252 22.4253096,31.5285209 L22.4253096,31.5285209 Z M13.3788907,17.9270777 L19.1759558,19.4711452 C19.8821397,19.6573416 20.4452701,20.2113893 20.6450906,20.9130318 L22.4366631,27.1687758 L26.4512386,13.7081404 L13.3788907,17.9270777 L13.3788907,17.9270777 Z" id="形状" fill="#FF5E5E"></path>
                    </g>
                </g>
            </g>
        </g>
    </g>
</svg>